<svg xmlns="http://www.w3.org/2000/svg" width="1120" height="510" viewBox="0 0 1120 510" role="img" aria-labelledby="title desc"><title id="title">Tree model performance on baby sleep prediction</title><desc id="desc">Precision-recall AUC on validation days. For 30 minutes: LightGBM 0.567, XGBoost 0.582, random forest 0.520, base rate 0.222. For 60 minutes: LightGBM 0.774, XGBoost 0.773, random forest 0.761, base rate 0.426.</desc><rect width="1120" height="510" fill="white"/><text x="560" y="46" text-anchor="middle" font-family="Arial,sans-serif" font-size="24" font-weight="700" fill="#1e293b">Tree model performance on baby sleep prediction</text><text x="325" y="96" text-anchor="middle" font-family="Arial,sans-serif" font-size="19" font-weight="700" fill="#1e293b">Sleep starts within 30 minutes</text><line x1="110" y1="400.0" x2="540" y2="400.0" stroke="#e2e8f0"/><text x="97" y="405.0" text-anchor="end" font-family="Arial,sans-serif" font-size="13" fill="#475569">0.0</text><line x1="110" y1="340.0" x2="540" y2="340.0" stroke="#e2e8f0"/><text x="97" y="345.0" text-anchor="end" font-family="Arial,sans-serif" font-size="13" fill="#475569">0.2</text><line x1="110" y1="280.0" x2="540" y2="280.0" stroke="#e2e8f0"/><text x="97" y="285.0" text-anchor="end" font-family="Arial,sans-serif" font-size="13" fill="#475569">0.4</text><line x1="110" y1="220.0" x2="540" y2="220.0" stroke="#e2e8f0"/><text x="97" y="225.0" text-anchor="end" font-family="Arial,sans-serif" font-size="13" fill="#475569">0.6</text><line x1="110" y1="160.0" x2="540" y2="160.0" stroke="#e2e8f0"/><text x="97" y="165.0" text-anchor="end" font-family="Arial,sans-serif" font-size="13" fill="#475569">0.8</text><line x1="110" y1="333.4" x2="540" y2="333.4" stroke="#475569" stroke-width="2" stroke-dasharray="7 5"/><text x="535" y="325.4" text-anchor="end" font-family="Arial,sans-serif" font-size="13" fill="#334155">Base rate 0.222</text><rect x="165" y="229.9" width="72" height="170.1" rx="3" fill="#4169a1"/><text x="201" y="217.9" text-anchor="middle" font-family="Arial,sans-serif" font-size="16" font-weight="700" fill="#1e293b">0.567</text><text x="201" y="426" text-anchor="middle" font-family="Arial,sans-serif" font-size="13" fill="#334155">LightGBM</text><rect x="295" y="225.4" width="72" height="174.6" rx="3" fill="#e0714b"/><text x="331" y="213.4" text-anchor="middle" font-family="Arial,sans-serif" font-size="16" font-weight="700" fill="#1e293b">0.582</text><text x="331" y="426" text-anchor="middle" font-family="Arial,sans-serif" font-size="13" fill="#334155">XGBoost</text><rect x="425" y="244.0" width="72" height="156.0" rx="3" fill="#69a989"/><text x="461" y="232.0" text-anchor="middle" font-family="Arial,sans-serif" font-size="16" font-weight="700" fill="#1e293b">0.520</text><text x="461" y="426" text-anchor="middle" font-family="Arial,sans-serif" font-size="13" fill="#334155">Random forest</text><text x="875" y="96" text-anchor="middle" font-family="Arial,sans-serif" font-size="19" font-weight="700" fill="#1e293b">Sleep starts within 60 minutes</text><line x1="660" y1="400.0" x2="1090" y2="400.0" stroke="#e2e8f0"/><text x="647" y="405.0" text-anchor="end" font-family="Arial,sans-serif" font-size="13" fill="#475569">0.0</text><line x1="660" y1="340.0" x2="1090" y2="340.0" stroke="#e2e8f0"/><text x="647" y="345.0" text-anchor="end" font-family="Arial,sans-serif" font-size="13" fill="#475569">0.2</text><line x1="660" y1="280.0" x2="1090" y2="280.0" stroke="#e2e8f0"/><text x="647" y="285.0" text-anchor="end" font-family="Arial,sans-serif" font-size="13" fill="#475569">0.4</text><line x1="660" y1="220.0" x2="1090" y2="220.0" stroke="#e2e8f0"/><text x="647" y="225.0" text-anchor="end" font-family="Arial,sans-serif" font-size="13" fill="#475569">0.6</text><line x1="660" y1="160.0" x2="1090" y2="160.0" stroke="#e2e8f0"/><text x="647" y="165.0" text-anchor="end" font-family="Arial,sans-serif" font-size="13" fill="#475569">0.8</text><line x1="660" y1="272.2" x2="1090" y2="272.2" stroke="#475569" stroke-width="2" stroke-dasharray="7 5"/><text x="1085" y="264.2" text-anchor="end" font-family="Arial,sans-serif" font-size="13" fill="#334155">Base rate 0.426</text><rect x="715" y="167.8" width="72" height="232.2" rx="3" fill="#4169a1"/><text x="751" y="155.8" text-anchor="middle" font-family="Arial,sans-serif" font-size="16" font-weight="700" fill="#1e293b">0.774</text><text x="751" y="426" text-anchor="middle" font-family="Arial,sans-serif" font-size="13" fill="#334155">LightGBM</text><rect x="845" y="168.1" width="72" height="231.9" rx="3" fill="#e0714b"/><text x="881" y="156.1" text-anchor="middle" font-family="Arial,sans-serif" font-size="16" font-weight="700" fill="#1e293b">0.773</text><text x="881" y="426" text-anchor="middle" font-family="Arial,sans-serif" font-size="13" fill="#334155">XGBoost</text><rect x="975" y="171.7" width="72" height="228.3" rx="3" fill="#69a989"/><text x="1011" y="159.7" text-anchor="middle" font-family="Arial,sans-serif" font-size="16" font-weight="700" fill="#1e293b">0.761</text><text x="1011" y="426" text-anchor="middle" font-family="Arial,sans-serif" font-size="13" fill="#334155">Random forest</text><text x="560" y="480" text-anchor="middle" font-family="Arial,sans-serif" font-size="14" fill="#475569">Precision–recall AUC on validation days · Higher is better</text></svg>